<svg version="1.1" id="Layer_1" xmlns="http://www.w3.org/2000/svg" x="0" y="0" viewBox="0 0 47 44" xml:space="preserve"><style>.st0,.st1{fill:none;stroke:#000;stroke-width:1.5;stroke-linecap:round;stroke-linejoin:round}.st1{stroke:#280}</style><path class="st0" d="M4 16v27M40 28h4.5c.4 0 .8-.2 1.1-.4.3-.3.4-.7.4-1.1 0-7.7.1-16.9-3.1-24.6-.1-.3-.4-.6-.7-.7-.3-.2-.7-.2-1-.2-.3.1-.6.3-.9.5-.2.3-.3.6-.3 1V43M1 1v12c0 .8.3 1.6.9 2.1.5.6 1.3.9 2.1.9s1.6-.3 2.1-.9c.6-.5.9-1.3.9-2.1V1"/><path class="st1" d="M32.5 14.6C30 11.9 26.6 10.3 23 10c-3.6-.3-7.2.9-10 3.1M11.5 35.4c1.3 1.4 3 2.6 4.8 3.4 1.8.8 3.7 1.2 5.7 1.2s3.9-.4 5.7-1.2c1.8-.8 3.4-1.9 4.8-3.4"/></svg>